<svg xmlns="http://www.w3.org/2000/svg" width="108.581" height="81.436" viewBox="0 0 108.581 81.436">
  <path id="envelope-solid" d="M106.524,90.891a1.277,1.277,0,0,1,2.057,1v43.369A10.182,10.182,0,0,1,98.4,145.436H10.179A10.182,10.182,0,0,1,0,135.256V91.909a1.268,1.268,0,0,1,2.057-1C6.808,94.6,13.106,99.289,34.737,115c4.475,3.266,12.024,10.137,19.553,10.095,7.571.064,15.269-6.956,19.574-10.095C95.5,99.289,101.773,94.581,106.524,90.891ZM54.29,118.29c4.92.085,12-6.193,15.566-8.78C98,89.088,100.14,87.307,106.63,82.217a5.075,5.075,0,0,0,1.951-4.008V74.179A10.182,10.182,0,0,0,98.4,64H10.179A10.182,10.182,0,0,0,0,74.179v4.029a5.106,5.106,0,0,0,1.951,4.008c6.489,5.069,8.631,6.871,36.773,27.294,3.563,2.587,10.646,8.865,15.566,8.78Z" transform="translate(0 -64)" fill="#fff"/>
</svg>
