<svg xmlns="http://www.w3.org/2000/svg" width="46" height="46" viewBox="0 0 46 46">
  <g id="グループ_133" data-name="グループ 133" transform="translate(-953 -175)">
    <circle id="楕円形_5" data-name="楕円形 5" cx="23" cy="23" r="23" transform="translate(953 175)" fill="#d4647a"/>
    <g id="noun-clinic-3117277" transform="translate(956.461 183)">
      <path id="パス_86" data-name="パス 86" d="M120.109,78.735l-6.736-4.888V68.958a1.54,1.54,0,0,0-3.079,0v2.656l-6.89-4.966a1.561,1.561,0,0,0-1.809,0L84.851,78.735a1.544,1.544,0,1,0,1.809,2.5l2.04-1.463v14.4a1.544,1.544,0,0,0,1.54,1.54h24.443a1.544,1.544,0,0,0,1.54-1.54v-14.4l2.04,1.463a1.552,1.552,0,0,0,2.194-.346,1.542,1.542,0,0,0-.347-2.156Zm-6.967,13.9H91.817V77.542l10.662-7.7,10.662,7.7Z" transform="translate(-82.671 -66.36)" fill="#fff"/>
      <path id="パス_87" data-name="パス 87" d="M268.672,223.8v2.81h-2.81a1.54,1.54,0,0,0,0,3.079h2.81v2.81a1.54,1.54,0,0,0,3.079,0v-2.771h2.81a1.54,1.54,0,0,0,0-3.079h-2.81v-2.81a1.544,1.544,0,0,0-1.54-1.54,1.487,1.487,0,0,0-1.54,1.5Z" transform="translate(-250.404 -211.584)" fill="#fff"/>
    </g>
  </g>
</svg>
