<svg xmlns="http://www.w3.org/2000/svg" width="46" height="46" viewBox="0 0 46 46">
  <g id="グループ_129" data-name="グループ 129" transform="translate(-868 -204)">
    <circle id="楕円形_4" data-name="楕円形 4" cx="23" cy="23" r="23" transform="translate(868 204)" fill="#d4647a"/>
    <g id="グループ_127" data-name="グループ 127" transform="translate(29.082 -50.839)">
      <path id="パス_11" data-name="パス 11" d="M328.487,232.61a4.341,4.341,0,1,0,4.358,4.341A4.354,4.354,0,0,0,328.487,232.61Z" transform="translate(533.305 37.107)" fill="#fff"/>
      <path id="パス_12" data-name="パス 12" d="M288.889,290.324a.876.876,0,0,1-.264-.054,6.219,6.219,0,0,1-6.187.005.923.923,0,0,1-.242.049c-5.364,0-9.73,3.957-9.766,8.833a16.856,16.856,0,0,0,26.228,0c-.038-4.878-4.4-8.834-9.769-8.834Z" transform="translate(576.265 -10.806)" fill="#fff"/>
      <path id="パス_13" data-name="パス 13" d="M266.975,180.09a16.867,16.867,0,0,0-14.706,25.166A11.365,11.365,0,0,1,261.936,197a6.174,6.174,0,0,1-1.227-3.694,6.251,6.251,0,0,1,12.5,0,6.173,6.173,0,0,1-1.225,3.69,11.365,11.365,0,0,1,9.7,8.257,16.867,16.867,0,0,0-14.707-25.166Z" transform="translate(594.833 80.749)" fill="#fff"/>
    </g>
  </g>
</svg>
