<svg xmlns="http://www.w3.org/2000/svg" width="150" height="149.913" viewBox="0 0 150 149.913">
  <g id="noun-heart-4554201" transform="translate(-40.934 -627.332)">
    <path id="パス_10" data-name="パス 10" d="M146.647,68.622a3.118,3.118,0,0,0,2.954,0c1.5-.8,36.651-19.931,38.483-43.693.827-10.706-3.815-19.284-12.418-22.941h0a26.047,26.047,0,0,0-27.543,5.958,26.064,26.064,0,0,0-27.542-5.958c-8.6,3.656-13.244,12.235-12.418,22.941C110,48.69,145.153,67.819,146.648,68.622ZM120.606,13.159h0a11.692,11.692,0,0,1,8.756-3.54,3.125,3.125,0,1,1,0,6.25,5.573,5.573,0,0,0-4.168,1.535,8.871,8.871,0,0,0-1.45,6.321,3.127,3.127,0,0,1-2.871,3.36c-.086.006-.165.009-.247.009a3.125,3.125,0,0,1-3.113-2.882,14.21,14.21,0,0,1,3.094-11.053Zm6.558,123.67a3.126,3.126,0,0,1,0,4.42l-8.081,8.081a3.125,3.125,0,0,1-4.42,0L70.915,105.581a3.125,3.125,0,0,1,0-4.42L79,93.08a3.126,3.126,0,0,1,4.42,0ZM220,65.4a11.623,11.623,0,0,1-3.469,8.343l-47.438,47.47a3.228,3.228,0,0,1-2.218.906H133.78l-6.25,6.25L91.873,92.714,108.4,76.152a3.231,3.231,0,0,1,2.219-.906H157.5a12.674,12.674,0,0,1,11.219,6.969A11.287,11.287,0,0,1,170,87.746a12.5,12.5,0,0,1-12.5,12.5h-25a3.125,3.125,0,0,0,0,6.251h25a18.766,18.766,0,0,0,18.75-18.75,18.262,18.262,0,0,0-2.625-9.532l27.094-22A11.827,11.827,0,0,1,220,65.4Z" transform="translate(-29.065 627)" fill="#fff"/>
  </g>
</svg>
