<svg xmlns="http://www.w3.org/2000/svg" width="46" height="46" viewBox="0 0 46 46">
  <g id="グループ_49" data-name="グループ 49" transform="translate(-660 -234)">
    <circle id="楕円形_2" data-name="楕円形 2" cx="23" cy="23" r="23" transform="translate(660 234)" fill="#d4647a"/>
    <g id="noun-heart-4554201" transform="translate(625.065 -387.332)">
      <path id="パス_10" data-name="パス 10" d="M87.653,16.061a.718.718,0,0,0,.68,0C88.677,15.876,96.775,11.47,97.2,6A4.98,4.98,0,0,0,94.337.714h0a6,6,0,0,0-6.344,1.372A6,6,0,0,0,81.65.714,4.979,4.979,0,0,0,78.789,6c.422,5.473,8.519,9.878,8.864,10.064Zm-6-12.774h0a2.693,2.693,0,0,1,2.017-.815.72.72,0,1,1,0,1.439,1.284,1.284,0,0,0-.96.354,2.043,2.043,0,0,0-.334,1.456.72.72,0,0,1-.661.774l-.057,0a.72.72,0,0,1-.717-.664,3.273,3.273,0,0,1,.713-2.546Zm1.511,28.484a.72.72,0,0,1,0,1.018L81.3,34.65a.72.72,0,0,1-1.018,0L70.21,24.573a.72.72,0,0,1,0-1.018l1.861-1.861a.72.72,0,0,1,1.018,0Zm21.382-16.451a2.677,2.677,0,0,1-.8,1.922L92.822,28.174a.744.744,0,0,1-.511.209H84.689L83.25,29.823,75.037,21.61,78.845,17.8a.744.744,0,0,1,.511-.209h10.8a2.919,2.919,0,0,1,2.584,1.605,2.6,2.6,0,0,1,.295,1.274,2.878,2.878,0,0,1-2.879,2.879H84.394a.72.72,0,0,0,0,1.44h5.758a4.322,4.322,0,0,0,4.319-4.319,4.206,4.206,0,0,0-.6-2.2l6.24-5.067a2.724,2.724,0,0,1,4.441,2.116Z" transform="translate(-29.065 627)" fill="#fff"/>
    </g>
  </g>
</svg>
