<svg xmlns="http://www.w3.org/2000/svg" width="46" height="46" viewBox="0 0 46 46">
  <g id="グループ_132" data-name="グループ 132" transform="translate(-738 -206)">
    <circle id="楕円形_1" data-name="楕円形 1" cx="23" cy="23" r="23" transform="translate(738 206)" fill="#d4647a"/>
    <g id="noun-nursing-home-15209" transform="translate(743.99 178.67)">
      <path id="パス_76" data-name="パス 76" d="M28.944,43.618v-8.84H22.675v3.268l-5.3-4.715L.01,48.761H4.833L17.371,37.67,29.909,48.762h4.823Z" fill="#fff"/>
      <path id="パス_77" data-name="パス 77" d="M704.544,435.285a1.965,1.965,0,1,1-1.965-1.965,1.965,1.965,0,0,1,1.965,1.965" transform="translate(-680.332 -388.416)" fill="#fff"/>
      <path id="パス_78" data-name="パス 78" d="M616.755,603.727a.776.776,0,0,0,.093-.363v-5.108a1.966,1.966,0,0,0-1.964-1.965h-5.5a1.966,1.966,0,0,0-1.964,1.965v5.108a.786.786,0,1,0,1.571,0v-4.323h.786v12.967h.02a.982.982,0,0,0,1.925,0h.02V604.15h.787v7.859h.02a.982.982,0,0,0,1.925,0h.02V599.042h.786v4.322a.779.779,0,0,0,.181.5,1.5,1.5,0,0,0-.719,1.279.482.482,0,0,0,.965,0,.542.542,0,1,1,1.085,0v7.173a.482.482,0,1,0,.965,0v-7.173a1.505,1.505,0,0,0-1-1.412Z" transform="translate(-589.832 -546.672)" fill="#fff"/>
      <path id="パス_79" data-name="パス 79" d="M269.548,832.6v2.281a3.131,3.131,0,1,1-4.736,4.01h-2.131a5.06,5.06,0,1,0,6.867-6.29Z" transform="translate(-255.071 -776.143)" fill="#fff"/>
      <path id="パス_80" data-name="パス 80" d="M337.276,568.639a1.965,1.965,0,1,1-1.965-1.964,1.965,1.965,0,0,1,1.965,1.964" transform="translate(-323.692 -517.913)" fill="#fff"/>
      <path id="パス_81" data-name="パス 81" d="M108.674,741.555a1.929,1.929,0,0,0,1.929-1.929v-4.34a1.923,1.923,0,0,0-3.468-1.152l-1.194,1.875h-1.888a.964.964,0,1,0,0,1.929h2.411a.959.959,0,0,0,.282-.047v.77h-3.412v.006a.96.96,0,0,0-.827.527l-2.411,4.823a.965.965,0,0,0,.431,1.294.965.965,0,0,0,1.294-.431l1.662-3.325h5.191Z" transform="translate(-97.09 -679.771)" fill="#fff"/>
    </g>
  </g>
</svg>
